<svg xmlns="http://www.w3.org/2000/svg" width="103.216" height="107.805" viewBox="0 0 103.216 107.805">
  <g id="Group_352" data-name="Group 352" transform="translate(-70.88 -115.064)">
    <path id="Path_825" data-name="Path 825" d="M112.667,117.282a52.225,52.225,0,1,1-40.251,72.8" transform="translate(0 0)" fill="none" stroke="#cf5c40" stroke-miterlimit="10" stroke-width="3.359"/>
    <g id="Group_351" data-name="Group 351" transform="translate(91.779 141.469)">
      <g id="Group_349" data-name="Group 349" transform="translate(0 37.55)">
        <path id="Path_826" data-name="Path 826" d="M123.637,296.738s9-.877,15.085-6.966l6.356-6.357L136.96,275.3l-6.357,6.358C124.514,287.743,123.637,296.738,123.637,296.738Z" transform="translate(-123.637 -275.297)" fill="#d68142"/>
        <path id="Path_827" data-name="Path 827" d="M132.932,297.49s6.162-.6,10.333-4.772l4.353-4.353-5.56-5.562-4.355,4.355C133.533,291.328,132.932,297.49,132.932,297.49Z" transform="translate(-129.195 -279.785)" fill="#e7ab57"/>
      </g>
      <path id="Path_828" data-name="Path 828" d="M158.095,211.374c-11.848,9.613-25.111,3.2-25.111,3.2l-1.788,23.7S169.943,201.76,158.095,211.374Z" transform="translate(-128.157 -198.562)" fill="#a52f23"/>
      <g id="Group_350" data-name="Group 350" transform="translate(11.052 32.004)">
        <path id="Path_829" data-name="Path 829" d="M166.135,274.948l-1.564,1.565a3.159,3.159,0,0,1-4.472,0l-8.048-8.048a3.159,3.159,0,0,1,0-4.47l1.566-1.566a3.164,3.164,0,0,1,4.471,0l8.047,8.048A3.162,3.162,0,0,1,166.135,274.948Z" transform="translate(-151.124 -261.504)" fill="#97a4a5"/>
        <path id="Path_830" data-name="Path 830" d="M169.9,278.717l-1.564,1.564a3.159,3.159,0,0,1-4.472,0l-5.513-5.512a3.16,3.16,0,0,1,0-4.471l1.565-1.565a3.164,3.164,0,0,1,4.471,0l5.512,5.513A3.162,3.162,0,0,1,169.9,278.717Z" transform="translate(-154.894 -265.273)" fill="#b7c4c5"/>
        <path id="Path_831" data-name="Path 831" d="M167.638,276.45l-1.564,1.564a3.159,3.159,0,0,1-4.472,0l-3.246-3.245a3.16,3.16,0,0,1,0-4.471l1.565-1.565a3.164,3.164,0,0,1,4.471,0l3.246,3.246A3.162,3.162,0,0,1,167.638,276.45Z" transform="translate(-154.894 -265.273)" fill="#a7b4b5"/>
      </g>
      <path id="Path_832" data-name="Path 832" d="M157.91,214.526c-11.848,9.612-25.111,3.2-25.111,3.2l-1.788,23.7S169.757,204.913,157.91,214.526Z" transform="translate(-128.046 -200.447)" fill="#96241b"/>
      <path id="Path_833" data-name="Path 833" d="M199.135,251.462c-9.612,11.85-3.2,25.111-3.2,25.111l-23.7,1.788S208.748,239.615,199.135,251.462Z" transform="translate(-152.695 -222.149)" fill="#a52f23"/>
      <path id="Path_834" data-name="Path 834" d="M195.986,251.65c-9.614,11.848-3.2,25.109-3.2,25.109l-23.7,1.789S205.6,239.8,195.986,251.65Z" transform="translate(-150.812 -222.261)" fill="#96241b"/>
      <path id="Path_835" data-name="Path 835" d="M172.218,270.185a2,2,0,0,1-2.831,0l-14.606-14.606a2,2,0,0,1,0-2.831h0a2,2,0,0,1,2.832,0l14.605,14.6a2,2,0,0,1,0,2.832Z" transform="translate(-141.909 -223.913)" fill="#687576"/>
      <path id="Path_836" data-name="Path 836" d="M187.289,214.3l-13.655,13.654L156.2,210.521l13.655-13.653A52.154,52.154,0,0,1,189.3,185.049c1.512-.536,2.956-.988,4.288-1.364.822-.232,1.614-.433,2.352-.607a51.661,51.661,0,0,1,6.3-1.168l.013,0a.018.018,0,0,0,0,.013,49.667,49.667,0,0,1-1.15,6.237c-.184.783-.393,1.609-.644,2.486-.362,1.292-.8,2.683-1.315,4.14A52.23,52.23,0,0,1,187.289,214.3Z" transform="translate(-143.106 -181.907)" fill="#b53c2f"/>
      <path id="Path_837" data-name="Path 837" d="M194.6,214.3l-13.655,13.654L168.43,215.44l13.655-13.655A109.735,109.735,0,0,1,198.8,188.2c1.171-.777,2.28-1.484,3.314-2.124.607-.376,1.188-.724,1.735-1.046,3.348-1.99,5.535-3.041,5.7-3.117l.013,0a.018.018,0,0,0,0,.013,49.663,49.663,0,0,1-1.15,6.237c-.184.783-.393,1.609-.644,2.486-.362,1.292-.8,2.683-1.315,4.14A52.23,52.23,0,0,1,194.6,214.3Z" transform="translate(-150.42 -181.907)" fill="#d3584a"/>
      <path id="Path_838" data-name="Path 838" d="M189.686,209.386l-13.655,13.655-7.6-7.6,13.655-13.655A109.735,109.735,0,0,1,198.8,188.2c1.171-.777,2.28-1.484,3.314-2.124.607-.376,1.188-.724,1.735-1.046,3.348-1.99,5.535-3.041,5.7-3.117l.013,0a.018.018,0,0,0,0,.013c-.076.166-1.122,2.338-3.1,5.673q-.5.832-1.063,1.762-.948,1.536-2.1,3.282A110.144,110.144,0,0,1,189.686,209.386Z" transform="translate(-150.42 -181.907)" fill="#c4493c"/>
      <path id="Path_839" data-name="Path 839" d="M214.527,227.255a6.96,6.96,0,1,1,0-9.844A6.959,6.959,0,0,1,214.527,227.255Z" transform="translate(-170.877 -201.917)" fill="#d7e4e5"/>
      <path id="Path_840" data-name="Path 840" d="M201.913,226.274a8.225,8.225,0,1,1,11.633,0A8.234,8.234,0,0,1,201.913,226.274Zm9.844-9.844a5.7,5.7,0,1,0,0,8.055A5.7,5.7,0,0,0,211.757,216.43Z" transform="translate(-169.001 -200.042)" fill="#586566"/>
      <path id="Path_841" data-name="Path 841" d="M223.07,230.876a2.784,2.784,0,1,1,0-3.937A2.784,2.784,0,0,1,223.07,230.876Z" transform="translate(-180.249 -208.345)" fill="#fff"/>
      <path id="Path_842" data-name="Path 842" d="M161.641,266.011l-17.719,13.418,13.418-17.719,6.277-1.977Z" transform="translate(-135.766 -228.441)" fill="#96241b"/>
      <path id="Path_843" data-name="Path 843" d="M163.617,259.733l-19.695,19.7,13.418-17.719Z" transform="translate(-135.766 -228.441)" fill="#7a1713"/>
      <path id="Path_844" data-name="Path 844" d="M248.387,194.811a23.587,23.587,0,0,1-3.156-2.146,26.893,26.893,0,0,1-2.482-2.2,27.343,27.343,0,0,1-2.012-2.236,24.989,24.989,0,0,1-2.191-3.148c1.512-.536,2.956-.988,4.288-1.364.822-.232,1.614-.433,2.352-.607a51.748,51.748,0,0,1,6.3-1.168l.013,0a.019.019,0,0,0,0,.013,49.842,49.842,0,0,1-1.15,6.237c-.183.783-.394,1.609-.644,2.486C249.339,191.963,248.906,193.354,248.387,194.811Z" transform="translate(-192.344 -181.924)" fill="#d68142" style="mix-blend-mode: multiply;isolation: isolate"/>
    </g>
  </g>
</svg>
