<svg id="process" xmlns="http://www.w3.org/2000/svg" width="81.029" height="81.029" viewBox="0 0 81.029 81.029">
  <path id="Path_469" data-name="Path 469" d="M2.108,51.176A1.349,1.349,0,0,0,3.17,52.389L7.876,53.4a21.336,21.336,0,0,0,.632,2.366L4.945,59a1.35,1.35,0,0,0-.312,1.581,27.006,27.006,0,0,0,2.155,3.761,1.35,1.35,0,0,0,1.525.517l4.574-1.473a21.64,21.64,0,0,0,1.742,1.742L13.156,69.7a1.35,1.35,0,0,0,.517,1.525,27.005,27.005,0,0,0,3.761,2.155,1.352,1.352,0,0,0,1.581-.312l3.228-3.563a21.742,21.742,0,0,0,2.367.632l1.016,4.706a1.352,1.352,0,0,0,1.211,1.061c.718.057,1.438.108,2.172.108s1.453-.051,2.172-.108a1.349,1.349,0,0,0,1.213-1.061l1.016-4.706a21.362,21.362,0,0,0,2.367-.632L39,73.069a1.349,1.349,0,0,0,1.581.312,27.142,27.142,0,0,0,3.761-2.155,1.351,1.351,0,0,0,.517-1.525l-1.473-4.574a21.842,21.842,0,0,0,1.742-1.741l4.574,1.473a1.349,1.349,0,0,0,1.525-.517,27.007,27.007,0,0,0,2.155-3.761A1.35,1.35,0,0,0,53.075,59l-3.563-3.228a21.739,21.739,0,0,0,.632-2.367l4.706-1.016a1.352,1.352,0,0,0,1.061-1.211c.055-.72.107-1.44.107-2.173s-.051-1.453-.108-2.172A1.349,1.349,0,0,0,54.85,45.62L50.143,44.6a21.358,21.358,0,0,0-.632-2.367l3.563-3.228a1.35,1.35,0,0,0,.312-1.581,27.141,27.141,0,0,0-2.155-3.761,1.349,1.349,0,0,0-1.525-.517l-4.574,1.473a21.636,21.636,0,0,0-1.742-1.742l1.473-4.574a1.351,1.351,0,0,0-.517-1.525,27.005,27.005,0,0,0-3.761-2.155A1.348,1.348,0,0,0,39,24.939L35.776,28.5a21.742,21.742,0,0,0-2.367-.632l-1.016-4.706A1.352,1.352,0,0,0,31.181,22.1a27.447,27.447,0,0,0-4.344,0,1.349,1.349,0,0,0-1.213,1.061l-1.016,4.706a21.335,21.335,0,0,0-2.366.632l-3.228-3.563a1.35,1.35,0,0,0-1.581-.312,27,27,0,0,0-3.761,2.155,1.35,1.35,0,0,0-.517,1.525l1.473,4.574a21.638,21.638,0,0,0-1.742,1.742L8.313,33.15a1.347,1.347,0,0,0-1.525.517,27,27,0,0,0-2.155,3.761,1.35,1.35,0,0,0,.312,1.581l3.563,3.228A21.742,21.742,0,0,0,7.876,44.6L3.17,45.62a1.352,1.352,0,0,0-1.061,1.211C2.051,47.551,2,48.271,2,49s.051,1.453.108,2.172Zm2.621-3.129,4.594-.993a1.351,1.351,0,0,0,1.048-1.1,18.827,18.827,0,0,1,.971-3.634,1.349,1.349,0,0,0-.357-1.479L7.517,37.694c.3-.579.619-1.134.945-1.66l4.451,1.434a1.356,1.356,0,0,0,1.46-.429,18.988,18.988,0,0,1,2.671-2.671,1.349,1.349,0,0,0,.429-1.46L16.04,28.457q.788-.492,1.66-.945l3.144,3.471a1.352,1.352,0,0,0,1.48.357,18.735,18.735,0,0,1,3.633-.971,1.351,1.351,0,0,0,1.1-1.048l.991-4.594a17.787,17.787,0,0,1,1.916,0l.993,4.594a1.351,1.351,0,0,0,1.1,1.048,18.827,18.827,0,0,1,3.634.971,1.348,1.348,0,0,0,1.479-.357l3.144-3.469c.579.3,1.134.619,1.66.945l-1.434,4.451a1.352,1.352,0,0,0,.429,1.46,18.988,18.988,0,0,1,2.671,2.671,1.346,1.346,0,0,0,1.46.429l4.451-1.434q.492.788.945,1.658l-3.471,3.144a1.351,1.351,0,0,0-.357,1.48,18.736,18.736,0,0,1,.971,3.633,1.351,1.351,0,0,0,1.048,1.1l4.594.991c.018.317.03.637.03.959s-.011.641-.028.957l-4.594.993a1.351,1.351,0,0,0-1.048,1.1,18.827,18.827,0,0,1-.971,3.634,1.349,1.349,0,0,0,.357,1.479L50.5,60.315c-.3.579-.619,1.134-.945,1.66L45.106,60.54a1.344,1.344,0,0,0-1.46.429,19.061,19.061,0,0,1-2.671,2.671,1.35,1.35,0,0,0-.429,1.459l1.434,4.451q-.788.492-1.658.945l-3.144-3.471a1.355,1.355,0,0,0-1.48-.357,18.736,18.736,0,0,1-3.633.971,1.351,1.351,0,0,0-1.1,1.048l-.991,4.594a17.787,17.787,0,0,1-1.916,0l-.993-4.594a1.351,1.351,0,0,0-1.1-1.048,18.827,18.827,0,0,1-3.634-.971,1.347,1.347,0,0,0-1.479.357L17.7,70.495c-.579-.3-1.134-.619-1.66-.945L17.475,65.1a1.352,1.352,0,0,0-.429-1.46,18.988,18.988,0,0,1-2.671-2.671,1.349,1.349,0,0,0-1.46-.429L8.463,61.972q-.492-.788-.945-1.66l3.471-3.144a1.351,1.351,0,0,0,.357-1.48,18.736,18.736,0,0,1-.971-3.633,1.351,1.351,0,0,0-1.048-1.1l-4.6-.989C4.713,49.646,4.7,49.326,4.7,49S4.712,48.363,4.729,48.047Z" transform="translate(-2 5.015)" fill="#fff"/>
  <path id="Path_470" data-name="Path 470" d="M62.357,21.224a1.349,1.349,0,0,0,.936-1.133,15.884,15.884,0,0,0,.119-1.885,16.156,16.156,0,0,0-.118-1.885,1.349,1.349,0,0,0-.936-1.133l-3.745-1.176q-.168-.46-.373-.9l1.815-3.478a1.354,1.354,0,0,0-.138-1.463A16.351,16.351,0,0,0,57.245,5.5a1.354,1.354,0,0,0-1.463-.139L52.3,7.172q-.442-.2-.9-.371L50.224,3.056a1.349,1.349,0,0,0-1.133-.936,14.939,14.939,0,0,0-3.772,0,1.349,1.349,0,0,0-1.133.936L43.01,6.8q-.46.168-.9.373L38.63,5.359a1.356,1.356,0,0,0-1.463.138A16.351,16.351,0,0,0,34.5,8.169a1.351,1.351,0,0,0-.139,1.463l1.814,3.478q-.2.442-.371.9l-3.745,1.176a1.349,1.349,0,0,0-.936,1.133,15.184,15.184,0,0,0,0,3.771,1.349,1.349,0,0,0,.936,1.133L35.8,22.4q.168.46.373.9L34.356,26.78a1.354,1.354,0,0,0,.138,1.463,16.351,16.351,0,0,0,2.673,2.673,1.353,1.353,0,0,0,1.463.139l3.477-1.814q.442.2.9.371l1.176,3.745a1.349,1.349,0,0,0,1.133.936,15.961,15.961,0,0,0,1.888.119,16.156,16.156,0,0,0,1.885-.117,1.349,1.349,0,0,0,1.133-.936L51.4,29.613q.46-.168.9-.373l3.477,1.815a1.351,1.351,0,0,0,1.463-.138,16.351,16.351,0,0,0,2.673-2.673,1.351,1.351,0,0,0,.139-1.463l-1.815-3.478q.2-.442.373-.9ZM57.144,20.03a1.354,1.354,0,0,0-.889.9,9.512,9.512,0,0,1-.721,1.748,1.347,1.347,0,0,0-.008,1.264l1.714,3.284a13.784,13.784,0,0,1-1.013,1.013l-3.284-1.714a1.351,1.351,0,0,0-1.264.008,9.512,9.512,0,0,1-1.748.721,1.354,1.354,0,0,0-.9.889l-1.113,3.544a11.378,11.378,0,0,1-1.423,0l-1.113-3.544a1.354,1.354,0,0,0-.9-.889,9.384,9.384,0,0,1-1.746-.721,1.35,1.35,0,0,0-1.265-.008L38.185,28.24a13.781,13.781,0,0,1-1.013-1.013l1.714-3.284a1.351,1.351,0,0,0-.008-1.264,9.513,9.513,0,0,1-.721-1.748,1.354,1.354,0,0,0-.889-.9l-3.544-1.113c-.016-.247-.023-.483-.023-.712s.007-.465.023-.712l3.544-1.113a1.354,1.354,0,0,0,.889-.9,9.385,9.385,0,0,1,.721-1.746,1.35,1.35,0,0,0,.008-1.265L37.172,9.184a13.781,13.781,0,0,1,1.013-1.013l3.284,1.714a1.355,1.355,0,0,0,1.264-.008,9.512,9.512,0,0,1,1.748-.721,1.354,1.354,0,0,0,.9-.889l1.113-3.544a11.376,11.376,0,0,1,1.423,0L49.03,8.267a1.354,1.354,0,0,0,.9.889,9.384,9.384,0,0,1,1.746.721,1.35,1.35,0,0,0,1.265.008l3.284-1.714A13.785,13.785,0,0,1,57.24,9.184l-1.714,3.284a1.351,1.351,0,0,0,.008,1.264,9.512,9.512,0,0,1,.721,1.748,1.354,1.354,0,0,0,.889.9l3.544,1.113c.016.247.023.483.023.712s-.007.465-.023.712Z" transform="translate(8.164 -2)" fill="#fff"/>
  <path id="Path_471" data-name="Path 471" d="M68.013,37.755l-2.32-.824a10.943,10.943,0,0,0-.455-1.1l1.055-2.222a1.345,1.345,0,0,0-.157-1.41,13.592,13.592,0,0,0-2.321-2.323,1.351,1.351,0,0,0-1.411-.157L60.18,30.772a10.786,10.786,0,0,0-1.1-.454L58.253,28a1.354,1.354,0,0,0-1.11-.889,12.445,12.445,0,0,0-3.278,0,1.349,1.349,0,0,0-1.11.889l-.824,2.32a10.943,10.943,0,0,0-1.1.455l-2.222-1.055a1.351,1.351,0,0,0-1.41.157A13.591,13.591,0,0,0,44.874,32.2a1.353,1.353,0,0,0-.157,1.411l1.055,2.223a10.787,10.787,0,0,0-.454,1.1L43,37.758a1.354,1.354,0,0,0-.889,1.11A13.231,13.231,0,0,0,42,40.5a13.536,13.536,0,0,0,.108,1.638A1.349,1.349,0,0,0,43,43.253l2.32.824a10.944,10.944,0,0,0,.455,1.1L44.717,47.4a1.345,1.345,0,0,0,.157,1.41A13.591,13.591,0,0,0,47.2,51.134a1.353,1.353,0,0,0,1.411.157l2.223-1.055a10.784,10.784,0,0,0,1.1.454l.825,2.32a1.354,1.354,0,0,0,1.11.889,13.042,13.042,0,0,0,1.638.111,13.536,13.536,0,0,0,1.638-.108,1.349,1.349,0,0,0,1.11-.889l.824-2.32a10.944,10.944,0,0,0,1.1-.455L62.4,51.292a1.342,1.342,0,0,0,1.41-.157,13.592,13.592,0,0,0,2.323-2.321,1.353,1.353,0,0,0,.157-1.411L65.236,45.18a10.789,10.789,0,0,0,.454-1.1l2.32-.825a1.354,1.354,0,0,0,.889-1.11A13.043,13.043,0,0,0,69.01,40.5a13.536,13.536,0,0,0-.108-1.638,1.351,1.351,0,0,0-.889-1.111ZM66.3,41l-2.141.76a1.351,1.351,0,0,0-.849.912,8.037,8.037,0,0,1-.75,1.819,1.354,1.354,0,0,0-.045,1.244l.97,2.043q-.336.369-.7.7l-2.043-.97a1.354,1.354,0,0,0-1.244.045,8.041,8.041,0,0,1-1.818.75,1.355,1.355,0,0,0-.913.849L56,51.294a9.235,9.235,0,0,1-.986,0l-.76-2.141a1.351,1.351,0,0,0-.912-.849,8.036,8.036,0,0,1-1.819-.75,1.362,1.362,0,0,0-1.244-.045l-2.043.97q-.369-.336-.7-.7l.97-2.043a1.35,1.35,0,0,0-.045-1.244,8.04,8.04,0,0,1-.75-1.818,1.355,1.355,0,0,0-.849-.913L44.717,41c-.011-.163-.016-.327-.016-.493s.005-.331.014-.493l2.141-.762a1.346,1.346,0,0,0,.848-.912,8.076,8.076,0,0,1,.751-1.819,1.354,1.354,0,0,0,.045-1.244l-.97-2.043q.336-.369.7-.7l2.043.97a1.346,1.346,0,0,0,1.244-.045,8.041,8.041,0,0,1,1.818-.75,1.355,1.355,0,0,0,.913-.849l.76-2.141a9.232,9.232,0,0,1,.986,0l.76,2.141a1.35,1.35,0,0,0,.912.849,8.036,8.036,0,0,1,1.819.75,1.346,1.346,0,0,0,1.244.045l2.043-.97q.369.336.7.7l-.97,2.043a1.35,1.35,0,0,0,.045,1.244,8.041,8.041,0,0,1,.75,1.818,1.355,1.355,0,0,0,.849.913l2.141.76c.011.165.016.328.016.494s-.005.33-.014.493Z" transform="translate(12.019 6.762)" fill="#fff"/>
  <path id="Path_472" data-name="Path 472" d="M25.855,60.711A14.855,14.855,0,1,0,11,45.855,14.873,14.873,0,0,0,25.855,60.711Zm0-27.01A12.154,12.154,0,1,1,13.7,45.855,12.169,12.169,0,0,1,25.855,33.7Z" transform="translate(1.154 8.164)" fill="#fff"/>
  <path id="Path_473" data-name="Path 473" d="M2.022,29.588,4.1,31.318A32.346,32.346,0,0,1,29,19.65c.687,0,1.373.039,2.059.082L29.4,21.4l1.91,1.91,4.051-4.051a1.349,1.349,0,0,0,0-1.91l-4.051-4.051L29.4,15.2l1.835,1.835c-.743-.047-1.487-.089-2.231-.089A35.041,35.041,0,0,0,2.022,29.588Z" transform="translate(-1.992 1.957)" fill="#fff"/>
  <path id="Path_474" data-name="Path 474" d="M44.752,9A6.752,6.752,0,1,0,51.5,15.752,6.76,6.76,0,0,0,44.752,9Zm0,10.8A4.051,4.051,0,1,1,48.8,15.752,4.056,4.056,0,0,1,44.752,19.8Z" transform="translate(10.617 0.453)" fill="#fff"/>
  <path id="Path_475" data-name="Path 475" d="M53.4,33a5.4,5.4,0,1,0,5.4,5.4A5.407,5.407,0,0,0,53.4,33Zm0,8.1a2.7,2.7,0,1,1,2.7-2.7A2.7,2.7,0,0,1,53.4,41.1Z" transform="translate(14.122 8.865)" fill="#fff"/>
  <path id="Path_476" data-name="Path 476" d="M63.711,5.378l-6.752-1.35a1.347,1.347,0,0,0-1.59,1.059l-1.35,6.752,2.648.531L57.4,8.734a20.264,20.264,0,0,1,2,8.771,20.041,20.041,0,0,1-4.443,12.661l2.108,1.689A22.977,22.977,0,0,0,59.725,7.334l3.457.691Z" transform="translate(16.232 -1.3)" fill="#fff"/>
</svg>
