<svg id="Successful" xmlns="http://www.w3.org/2000/svg" width="65.8" height="65.8" viewBox="0 0 65.8 65.8">
  <path id="Path_477" data-name="Path 477" d="M119.025,162.273a1.285,1.285,0,0,1-.909-.377l-13.974-13.973a1.285,1.285,0,0,1,0-1.818l7.27-7.27a1.285,1.285,0,0,1,1.818,0l5.8,5.8,14.406-14.406a1.285,1.285,0,0,1,1.818,0l7.27,7.27a1.285,1.285,0,0,1,0,1.817L119.934,161.9a1.285,1.285,0,0,1-.909.376Zm-12.156-15.259,12.156,12.156L139.792,138.4l-5.452-5.453-14.406,14.406a1.285,1.285,0,0,1-1.817,0l-5.8-5.8Zm0,0" transform="translate(-90.43 -113.16)" fill="#fff"/>
  <path id="Path_478" data-name="Path 478" d="M32.892,65.8q-1.259,0-2.522-.1A32.893,32.893,0,1,1,59.64,52.076a1.285,1.285,0,1,1-2.087-1.5,30.33,30.33,0,1,0-6.976,6.977,1.285,1.285,0,1,1,1.5,2.087A32.9,32.9,0,0,1,32.892,65.8Zm0,0" transform="translate(0 0)" fill="#fff"/>
  <path id="Path_479" data-name="Path 479" d="M421.238,422.523a1.286,1.286,0,1,1,.909-.377A1.294,1.294,0,0,1,421.238,422.523Zm0,0" transform="translate(-365.983 -365.982)" fill="#fff"/>
</svg>
