<svg xmlns="http://www.w3.org/2000/svg" width="103.216" height="107.805" viewBox="0 0 103.216 107.805">
  <g id="Group_348" data-name="Group 348" transform="translate(-70.88 -115.064)">
    <path id="Path_810" data-name="Path 810" d="M112.667,117.282a52.225,52.225,0,1,1-40.251,72.8" transform="translate(0 0)" fill="none" stroke="#cf5c40" stroke-miterlimit="10" stroke-width="3.359"/>
    <g id="Group_347" data-name="Group 347" transform="translate(86.685 138.682)">
      <path id="Path_811" data-name="Path 811" d="M115.594,180.549l27.513,22.234,12.678-11.439L118.9,177.8a.634.634,0,0,0-.552.056l-2.686,1.66A.635.635,0,0,0,115.594,180.549Z" transform="translate(-111.852 -177.76)" fill="#eb4033"/>
      <path id="Path_812" data-name="Path 812" d="M115.721,181.907l-.063.038a.635.635,0,0,0-.065,1.034l27.513,22.234,12.678-11.439-4.225-1.552C146.331,199.337,133.054,196.89,115.721,181.907Z" transform="translate(-111.852 -180.19)" fill="#c12e2a"/>
      <path id="Path_813" data-name="Path 813" d="M211.57,276.453l-14.441-32.292,14.306-9.323,3.639,39.126a.633.633,0,0,1-.2.52l-2.293,2.171A.635.635,0,0,1,211.57,276.453Z" transform="translate(-159.775 -211.211)" fill="#eb4033"/>
      <path id="Path_814" data-name="Path 814" d="M212.638,276.6l-.053.05a.635.635,0,0,1-1.016-.2L197.129,244.16l14.306-9.322.417,4.482C203.635,242.55,202.6,256.01,212.638,276.6Z" transform="translate(-159.775 -211.211)" fill="#c12e2a"/>
      <path id="Path_815" data-name="Path 815" d="M125.709,228.584c15.268-14.275,36.561-34.588,42.143-38.462s13.079-4.167,14.843-1.874-2.292,10.888-6.4,13.765-43.542,27.887-47.537,30.539S121.334,232.933,125.709,228.584Z" transform="translate(-116.722 -183.058)" fill="#ff6354"/>
      <path id="Path_816" data-name="Path 816" d="M157.454,212.123c-17.223,11.675-29.1,20.232-33.758,21.22-.26,2.01,2.265,2.578,5.072.715,4-2.653,43.433-27.663,47.537-30.539s8.16-11.472,6.4-13.765a2.363,2.363,0,0,0-.38-.385C181.046,194.832,168.919,204.35,157.454,212.123Z" transform="translate(-116.728 -184.563)" opacity="0.22" style="mix-blend-mode: soft-light;isolation: isolate"/>
      <path id="Path_817" data-name="Path 817" d="M106.955,262.956l9.195,10.091,5.6-5.208-13.147-5.959a.257.257,0,0,0-.22,0l-1.356.669A.257.257,0,0,0,106.955,262.956Z" transform="translate(-106.888 -227.046)" fill="#eb4033"/>
      <path id="Path_818" data-name="Path 818" d="M142.272,301.876l-7.4-11.474,6.471-4.083,2.391,14.235a.259.259,0,0,1-.06.212l-.994,1.139A.257.257,0,0,1,142.272,301.876Z" transform="translate(-123.29 -241.383)" fill="#eb4033"/>
      <g id="Group_346" data-name="Group 346" transform="translate(56.627 5.412)">
        <path id="Path_819" data-name="Path 819" d="M257.605,205.413a9.047,9.047,0,0,0,1.131-3.772L257,202.979A8.894,8.894,0,0,1,257.605,205.413Z" transform="translate(-251.488 -197.168)" fill="#ffa281"/>
        <path id="Path_820" data-name="Path 820" d="M254.8,198.384l2.044-1.573a4.01,4.01,0,0,0-.645-1.745l-2.366,1.82A9.492,9.492,0,0,1,254.8,198.384Z" transform="translate(-249.632 -193.315)" fill="#ffa281"/>
        <path id="Path_821" data-name="Path 821" d="M243.689,191.13a10.523,10.523,0,0,1,1.867,1.08l1.7-1.3A10.176,10.176,0,0,0,243.689,191.13Z" transform="translate(-243.689 -190.835)" fill="#ffa281"/>
        <path id="Path_822" data-name="Path 822" d="M249.787,193.14a11.271,11.271,0,0,1,1.155,1.087l2.362-1.817a4.027,4.027,0,0,0-1.471-.844Z" transform="translate(-247.263 -191.263)" fill="#ffa281"/>
      </g>
      <path id="Path_823" data-name="Path 823" d="M107.715,262.722l-.684.337a.257.257,0,0,0-.076.4l9.195,10.091,5.6-5.209-1.532-.694C117.472,271.187,111.455,269.182,107.715,262.722Z" transform="translate(-106.888 -227.553)" fill="#c12e2a"/>
      <path id="Path_824" data-name="Path 824" d="M143.183,301.331l-.5.574a.257.257,0,0,1-.409-.03l-7.4-11.474,6.471-4.083.279,1.658C137.5,289.731,137.9,296.061,143.183,301.331Z" transform="translate(-123.29 -241.383)" fill="#c12e2a"/>
    </g>
  </g>
</svg>
