<svg id="smile" xmlns="http://www.w3.org/2000/svg" width="93.652" height="79.021" viewBox="0 0 93.652 79.021">
  <g id="Group_112" data-name="Group 112" transform="translate(16.626 45.423)">
    <g id="Group_111" data-name="Group 111">
      <path id="Path_480" data-name="Path 480" d="M94.019,288.862a1.831,1.831,0,1,0,.536,1.294A1.841,1.841,0,0,0,94.019,288.862Z" transform="translate(-90.895 -288.326)" fill="#fff"/>
    </g>
  </g>
  <g id="Group_114" data-name="Group 114" transform="translate(33.883 45.423)">
    <g id="Group_113" data-name="Group 113">
      <path id="Path_481" data-name="Path 481" d="M188.364,288.862a1.831,1.831,0,1,0,.536,1.294A1.843,1.843,0,0,0,188.364,288.862Z" transform="translate(-185.24 -288.326)" fill="#fff"/>
    </g>
  </g>
  <g id="Group_116" data-name="Group 116" transform="translate(19.161 55.946)">
    <g id="Group_115" data-name="Group 115">
      <path id="Path_482" data-name="Path 482" d="M119.243,345.914a1.83,1.83,0,0,0-2.24,1.3,4.476,4.476,0,0,1-8.65,0,1.83,1.83,0,1,0-3.536.945,8.136,8.136,0,0,0,15.722,0A1.83,1.83,0,0,0,119.243,345.914Z" transform="translate(-104.754 -345.851)" fill="#fff"/>
    </g>
  </g>
  <g id="Group_118" data-name="Group 118" transform="translate(45.018 0)">
    <g id="Group_117" data-name="Group 117">
      <path id="Path_483" data-name="Path 483" d="M247.946,39.995a1.83,1.83,0,0,0-1.83,1.83V53.443a1.83,1.83,0,1,0,3.66,0V41.825A1.83,1.83,0,0,0,247.946,39.995Z" transform="translate(-246.116 -39.995)" fill="#fff"/>
    </g>
  </g>
  <g id="Group_120" data-name="Group 120" transform="translate(45.019 18.085)">
    <g id="Group_119" data-name="Group 119">
      <path id="Path_484" data-name="Path 484" d="M249.245,139.4a1.829,1.829,0,1,0,.536,1.294A1.837,1.837,0,0,0,249.245,139.4Z" transform="translate(-246.121 -138.864)" fill="#fff"/>
    </g>
  </g>
  <g id="Group_122" data-name="Group 122" transform="translate(27.901 11.434)">
    <g id="Group_121" data-name="Group 121">
      <path id="Path_485" data-name="Path 485" d="M160.329,107.706l-4.672-4.668a1.83,1.83,0,0,0-2.587,2.589l4.672,4.668a1.83,1.83,0,0,0,2.587-2.589Z" transform="translate(-152.534 -102.503)" fill="#fff"/>
    </g>
  </g>
  <g id="Group_124" data-name="Group 124" transform="translate(57.174 11.438)">
    <g id="Group_123" data-name="Group 123" transform="translate(0 0)">
      <path id="Path_486" data-name="Path 486" d="M320.66,103.064a1.83,1.83,0,0,0-2.588,0l-4.967,4.971a1.83,1.83,0,1,0,2.589,2.587l4.967-4.971A1.83,1.83,0,0,0,320.66,103.064Z" transform="translate(-312.569 -102.528)" fill="#fff"/>
    </g>
  </g>
  <g id="Group_126" data-name="Group 126" transform="translate(0 24.836)">
    <g id="Group_125" data-name="Group 125">
      <path id="Path_487" data-name="Path 487" d="M92.726,195.853a27.1,27.1,0,0,0-45.913-11.534,27.085,27.085,0,1,0,.02,37.091,27.081,27.081,0,0,0,45.893-25.557ZM27.085,226.3a23.425,23.425,0,1,1,17.393-39.115q-.728,1.03-1.369,2.136a27.091,27.091,0,0,0,1.379,29.235A23.316,23.316,0,0,1,27.085,226.3Zm45.543-.81a23.425,23.425,0,0,1-26.349-34.339,23.772,23.772,0,0,1,1.922-2.837c.03-.035.059-.071.086-.108a23.426,23.426,0,1,1,24.341,37.283Z" transform="translate(0 -175.775)" fill="#fff"/>
    </g>
  </g>
  <g id="Group_128" data-name="Group 128" transform="translate(53.401 45.393)">
    <g id="Group_127" data-name="Group 127">
      <path id="Path_488" data-name="Path 488" d="M299.746,291.1a3.969,3.969,0,1,0-7.668,2.054,1.83,1.83,0,1,0,3.535-.947.31.31,0,0,1,.219-.379.309.309,0,0,1,.379.219,1.83,1.83,0,0,0,3.535-.947Z" transform="translate(-291.942 -288.161)" fill="#fff"/>
    </g>
  </g>
  <g id="Group_130" data-name="Group 130" transform="translate(69.965 40.954)">
    <g id="Group_129" data-name="Group 129">
      <path id="Path_489" data-name="Path 489" d="M390.3,266.833a3.969,3.969,0,1,0-7.668,2.055,1.83,1.83,0,1,0,3.535-.948.309.309,0,0,1,.6-.16,1.83,1.83,0,0,0,3.535-.947Z" transform="translate(-382.499 -263.889)" fill="#fff"/>
    </g>
  </g>
  <g id="Group_132" data-name="Group 132" transform="translate(60.604 54.023)">
    <g id="Group_131" data-name="Group 131">
      <path id="Path_490" data-name="Path 490" d="M346.884,336.7a1.83,1.83,0,1,0-3.535.947,4.363,4.363,0,1,1-8.429,2.259,1.83,1.83,0,0,0-3.535.947,8.034,8.034,0,0,0,7.737,5.95,8.035,8.035,0,0,0,7.763-10.1Z" transform="translate(-331.322 -335.341)" fill="#fff"/>
    </g>
  </g>
</svg>
